<svg xmlns="http://www.w3.org/2000/svg" xmlns:xlink="http://www.w3.org/1999/xlink" viewBox="0 0 280 120"><defs><style>.cls-1{fill:#e8eaed;}.cls-2{isolation:isolate;}.cls-13,.cls-3{fill:#fff;}.cls-11,.cls-4,.cls-5{mix-blend-mode:multiply;}.cls-4{fill:url(#linear-gradient);}.cls-5{fill:url(#linear-gradient-2);}.cls-6{fill:#f8f9fa;}.cls-7{clip-path:url(#clip-path);}.cls-8{clip-path:url(#clip-path-2);}.cls-9{clip-path:url(#clip-path-5);}.cls-10{fill:none;}.cls-11{fill:url(#linear-gradient-3);}.cls-12{fill:#bdc1c6;}.cls-13{stroke:#bdc1c6;stroke-miterlimit:10;stroke-width:2px;}.cls-14{fill:#4285f4;}.cls-15{fill:#185abc;}.cls-16{fill:#34a853;}</style><linearGradient id="linear-gradient" x1="162.61" y1="76.91" x2="205.48" y2="76.91" gradientUnits="userSpaceOnUse"><stop offset="0" stop-color="#bdc1c6" stop-opacity="0"/><stop offset="0.14" stop-color="#bdc1c6" stop-opacity="0.02"/><stop offset="0.28" stop-color="#bdc1c6" stop-opacity="0.08"/><stop offset="0.42" stop-color="#bdc1c6" stop-opacity="0.19"/><stop offset="0.57" stop-color="#bdc1c6" stop-opacity="0.34"/><stop offset="0.72" stop-color="#bdc1c6" stop-opacity="0.52"/><stop offset="0.86" stop-color="#bdc1c6" stop-opacity="0.75"/><stop offset="1" stop-color="#bdc1c6"/></linearGradient><linearGradient id="linear-gradient-2" x1="4.97" y1="65.52" x2="47.84" y2="65.52" xlink:href="#linear-gradient"/><clipPath id="clip-path"><path class="cls-1" d="M217.26,52.1a1.47,1.47,0,1,0-1.46-1.46A1.47,1.47,0,0,0,217.26,52.1Zm4.4,2.2h-8.79V47h8.79ZM215.06,44a2.2,2.2,0,0,1,4.4,0v1.47h-4.4Zm6.6,1.47h-.74V44a3.66,3.66,0,1,0-7.32,0v1.47h-.73A1.47,1.47,0,0,0,211.4,47V54.3a1.47,1.47,0,0,0,1.47,1.46h8.79a1.47,1.47,0,0,0,1.46-1.46V47A1.47,1.47,0,0,0,221.66,45.51Z"/></clipPath><clipPath id="clip-path-2"><rect class="cls-1" x="208.47" y="39.65" width="17.58" height="17.58"/></clipPath><clipPath id="clip-path-5"><rect class="cls-1" x="211.4" y="40.38" width="11.72" height="15.38"/></clipPath><linearGradient id="linear-gradient-3" x1="51.29" y1="97.86" x2="94.16" y2="97.86" xlink:href="#linear-gradient"/></defs><g class="cls-2"><g id="BG"><rect class="cls-3" y="-0.37" width="280" height="120"/></g><g id="Layer_11" data-name="Layer 11"><rect class="cls-4" x="162.61" y="74.61" width="42.88" height="4.59"/><rect class="cls-5" x="4.97" y="63.22" width="42.88" height="4.59"/><rect class="cls-6" x="40.22" y="31.14" width="65.41" height="35.67"/><path class="cls-1" d="M104.63,32.14V65.81H41.22V32.14h63.41m2-2H39.22V67.81h67.41V30.14Z"/><path class="cls-3" d="M40.22,30.13V26.18a2,2,0,0,1,2-2h61.46a2,2,0,0,1,2,2v3.95Z"/><path class="cls-1" d="M103.65,25.2a1,1,0,0,1,1,1v2.95H41.22V26.18a1,1,0,0,1,1-1h61.46m0-2H42.19a3,3,0,0,0-3,3v4.95h67.41V26.18a3,3,0,0,0-3-3Z"/><circle class="cls-1" cx="43.18" cy="27.17" r="0.99"/><path class="cls-3" d="M199.68,18.67h35.16a3.4,3.4,0,0,1,3.4,3.4V74.81a3.39,3.39,0,0,1-3.39,3.39H199.68a3.4,3.4,0,0,1-3.4-3.4V22.07A3.39,3.39,0,0,1,199.68,18.67Z"/><path class="cls-1" d="M234.84,19.67a2.41,2.41,0,0,1,2.4,2.4V74.81a2.4,2.4,0,0,1-2.4,2.39H199.68a2.39,2.39,0,0,1-2.39-2.39V22.07a2.4,2.4,0,0,1,2.39-2.4h35.16m0-2H199.68a4.39,4.39,0,0,0-4.39,4.4V74.81a4.38,4.38,0,0,0,4.39,4.39h35.16a4.39,4.39,0,0,0,4.4-4.39V22.07a4.4,4.4,0,0,0-4.4-4.4Z"/><rect class="cls-6" x="200.68" y="23.07" width="33.16" height="50.74"/><path class="cls-1" d="M232.84,24.07V72.81H201.68V24.07h31.16m2-2H199.68V74.81h35.16V22.07Z"/><path class="cls-1" d="M217.26,52.1a1.47,1.47,0,1,0-1.46-1.46A1.47,1.47,0,0,0,217.26,52.1Zm4.4,2.2h-8.79V47h8.79ZM215.06,44a2.2,2.2,0,0,1,4.4,0v1.47h-4.4Zm6.6,1.47h-.74V44a3.66,3.66,0,1,0-7.32,0v1.47h-.73A1.47,1.47,0,0,0,211.4,47V54.3a1.47,1.47,0,0,0,1.47,1.46h8.79a1.47,1.47,0,0,0,1.46-1.46V47A1.47,1.47,0,0,0,221.66,45.51Z"/><g class="cls-7"><rect class="cls-1" x="208.47" y="39.65" width="17.58" height="17.58"/><g class="cls-8"><g class="cls-2"><rect class="cls-1" x="208.47" y="39.65" width="17.58" height="17.58"/><g class="cls-8"><rect class="cls-1" x="208.47" y="39.65" width="17.58" height="17.58"/><g class="cls-8"><rect class="cls-1" x="211.4" y="40.38" width="11.72" height="15.38"/><g class="cls-9"><rect class="cls-1" x="204.81" y="35.98" width="24.91" height="24.91"/></g></g></g></g></g></g><rect class="cls-10" x="208.47" y="39.65" width="17.58" height="17.58"/></g><g id="Isolation_Mode" data-name="Isolation Mode"><rect class="cls-11" x="51.29" y="95.56" width="42.88" height="4.59"/><rect class="cls-3" x="89.8" y="41.97" width="96" height="56.19" rx="3.59"/><path class="cls-12" d="M182.21,43a2.59,2.59,0,0,1,2.59,2.59v49a2.59,2.59,0,0,1-2.59,2.59H93.4a2.6,2.6,0,0,1-2.6-2.59v-49A2.6,2.6,0,0,1,93.4,43h88.81m0-2H93.4a4.59,4.59,0,0,0-4.6,4.59v49a4.59,4.59,0,0,0,4.6,4.59h88.81a4.58,4.58,0,0,0,4.59-4.59v-49A4.58,4.58,0,0,0,182.21,41Z"/><rect class="cls-13" x="88.8" y="40.97" width="98" height="58.19" rx="4.59"/><circle class="cls-14" cx="113.53" cy="70.06" r="16.34"/><path class="cls-15" d="M103.25,78.16c0-2.77,4.78-5,10.28-5.11,5.5.1,10.28,2.34,10.28,5.11v.29a13.27,13.27,0,1,0-20.56,0Z"/><path class="cls-3" d="M123.81,78.16c0-2.77-4.78-5-10.28-5.11-5.5.1-10.28,2.34-10.28,5.11v.29a13.27,13.27,0,0,0,20.56,0Z"/><circle class="cls-3" cx="113.53" cy="65.3" r="5.31"/><rect class="cls-12" x="136.05" y="57.54" width="41.72" height="2.09" rx="1.04"/><rect class="cls-12" x="136.05" y="65.19" width="41.72" height="2.09" rx="1.04"/><rect class="cls-12" x="136.05" y="72.84" width="41.72" height="2.09" rx="1.04"/><rect class="cls-12" x="136.05" y="80.49" width="25.03" height="2.09" rx="1.04"/><g id="Group-64-Copy-2"><path id="Rectangle-4-Copy-9" class="cls-16" d="M169.73,77h0a4.51,4.51,0,0,1,4.5,4.5h0a4.5,4.5,0,0,1-4.5,4.5h0a4.49,4.49,0,0,1-4.5-4.5h0A4.5,4.5,0,0,1,169.73,77Z"/><g id="Group-Copy-12"><path id="Combined-Shape" class="cls-3" d="M168.9,82.94l3.48-3.48.54.55-4,4,0,0h0l-2.23-2.24.54-.54Z"/></g></g></g></g></svg>